HIERARCHY
ROOT root     
{
	OFFSET 0.0000 0.0000 0.0000
	CHANNELS 6 Xposition Yposition Zposition Zrotation Yrotation Xrotation
	JOINT pelvis   
	{
		OFFSET 0.0000 0.0000 0.0000
		CHANNELS 3 Zrotation Yrotation Xrotation
		JOINT thorax   
		{
			OFFSET 0.0000 23.0750 -5.0000
			CHANNELS 3 Zrotation Yrotation Xrotation
			JOINT rclavicle
			{
				OFFSET 0.0000 28.0009 0.0000
				CHANNELS 3 Zrotation Yrotation Xrotation
				JOINT rhumerus 
				{
					OFFSET -18.5725 5.5939 0.0000
					CHANNELS 3 Zrotation Yrotation Xrotation
					JOINT rradius  
					{
						OFFSET -24.8459 0.0000 0.0000
						CHANNELS 3 Zrotation Yrotation Xrotation
						JOINT rhand    
						{
							OFFSET -24.5477 0.0000 0.0000
							CHANNELS 3 Zrotation Yrotation Xrotation
							End Site
							{
								OFFSET -8.1826 0.0000 0.0000
							}
						}
					}
				}
			}
			JOINT lclavicle
			{
				OFFSET 0.0000 28.0009 0.0000
				CHANNELS 3 Zrotation Yrotation Xrotation
				JOINT lhumerus 
				{
					OFFSET 18.5725 5.5939 0.0000
					CHANNELS 3 Zrotation Yrotation Xrotation
					JOINT lradius  
					{
						OFFSET 24.8459 0.0000 0.0000
						CHANNELS 3 Zrotation Yrotation Xrotation
						JOINT lhand    
						{
							OFFSET 24.5477 0.0000 0.0000
							CHANNELS 3 Zrotation Yrotation Xrotation
							End Site
							{
								OFFSET 8.1826 0.0000 0.0000
							}
						}
					}
				}
			}
			JOINT head     
			{
				OFFSET 0.0000 35.2030 0.0000
				CHANNELS 3 Zrotation Yrotation Xrotation
				End Site
				{
					OFFSET 0.0000 11.7343 0.0000
				}
			}
		}
		JOINT rfemur   
		{
			OFFSET -8.2817 0.0000 0.0000
			CHANNELS 3 Zrotation Yrotation Xrotation
			JOINT rtibia   
			{
				OFFSET 0.0000 -43.3627 0.0000
				CHANNELS 3 Zrotation Yrotation Xrotation
				JOINT rfoot    
				{
					OFFSET 0.0000 -38.2947 0.0000
					CHANNELS 3 Zrotation Yrotation Xrotation
					JOINT rtoes    
					{
						OFFSET 0.0000 0.0000 16.6054
						CHANNELS 3 Zrotation Yrotation Xrotation
						End Site
						{
							OFFSET 0.0000 0.0000 5.5351
						}
					}
				}
			}
		}
		JOINT lfemur   
		{
			OFFSET 8.2817 0.0000 0.0000
			CHANNELS 3 Zrotation Yrotation Xrotation
			JOINT ltibia   
			{
				OFFSET 0.0000 -43.3627 0.0000
				CHANNELS 3 Zrotation Yrotation Xrotation
				JOINT lfoot    
				{
					OFFSET 0.0000 -38.2947 0.0000
					CHANNELS 3 Zrotation Yrotation Xrotation
					JOINT ltoes    
					{
						OFFSET 0.0000 0.0000 16.6054
						CHANNELS 3 Zrotation Yrotation Xrotation
						End Site
						{
							OFFSET 0.0000 0.0000 5.5351
						}
					}
				}
			}
		}
	}
}
MOTION
Frames: 17
Frame Time: .0333333
61.991 72.601 12.337 77.515 -85.1785 -52.6279 0 -0 0 1.23968 -14.1031 17.9748 14.7245 -15.6412 -6.06204e-05 54.4817 -26.9157 7.48494 -1.78771e-06 79.4125 -1.48455e-06 5.67159 4.07886 0.202103 -9.58719 16.816 9.57117e-05 -45.183 -0.383029 7.14331 -180 -72.0567 180 -11.5525 0.665702 -0.067299 -1.75069 2.14949 -21.7046 10.9229 -12.9518 -76.5664 -0 -0 49.9992 -3.10006e-08 -3.59076 7.39155 -0.462504 -2.80818e-06 -19.8677 0.0709103 9.919 -17.5864 -0 -0 60.308 4.85939e-06 -3.768 -4.81511 0.316703 -1.89305e-06 -89.6858 
60.716 72.433 12.2 83.0956 -85.4922 -58.1957 0 -0 0 2.14541 -13.9837 17.9115 14.7574 -15.3852 5.98899e-06 54.551 -26.274 6.61634 5.77805e-07 79.7039 1.16329e-06 5.19837 3.93534 0.178701 -9.86175 17.0079 3.12218e-05 -46.0156 0.976547 7.37517 -180 -72.6469 180 -11.7924 0.641296 -0.0662022 -2.16135 2.26582 -21.9999 11.2107 -12.7844 -76.8251 -0 -0 52.0766 -5.62881e-06 -2.70358 6.25051 -0.294595 1.42921e-06 -14.9393 0.310511 9.98985 -16.5441 -0 -0 59.8084 -2.57861e-06 -3.62364 -3.84898 0.243608 -7.95265e-07 -90.2518 
59.454 72.278 12.056 89.7465 -85.7794 -64.808 0 -0 0 3.05555 -13.847 17.8392 14.8089 -15.1273 -8.26315e-06 54.6143 -25.6005 5.74722 -0 80.0509 -0 4.63671 3.76903 0.152602 -10.107 17.1891 -7.50669e-05 -46.9055 2.30009 7.59807 -180 -73.3937 180 -11.9787 0.633297 -0.0663981 -2.56813 2.39896 -22.2196 11.4688 -12.5461 -76.9746 -0 -0 53.9989 -1.03527e-06 -2.00405 4.86005 -0.169906 -6.90873e-07 -10.2213 0.515732 10.1551 -15.5518 -0 -0 59.3097 2.94327e-07 -3.39255 -2.86714 0.169903 -5.21621e-06 -90.6522 
58.209 72.137 11.911 97.3549 -85.9989 -72.3477 0 -0 0 3.95779 -13.7069 17.754 14.8823 -14.8757 3.24862e-06 54.6749 -24.9139 4.88039 1.17817e-06 80.474 1.39235e-06 4.00218 3.58167 0.125202 -10.3241 17.362 -1.06612e-06 -47.8252 3.56678 7.82492 -180 -74.2978 180 -12.0963 0.644099 -0.0681975 -2.96583 2.54037 -22.3675 11.6865 -12.2609 -77.0297 -0 -0 55.7642 2.25647e-06 -1.48795 3.31585 -0.0860997 8.14689e-08 -6.06415 0.672281 10.3916 -14.6272 -0 -0 58.8189 -4.42561e-07 -3.07147 -1.84269 0.0989016 3.63209e-07 -90.9211 
56.986 72.01 11.768 105.485 -86.1354 -80.375 0 -0 0 4.84339 -13.5742 17.6486 14.9786 -14.6419 -1.31097e-05 54.7385 -24.2303 4.01597 -2.07602e-06 81.0054 -1.77324e-06 3.31085 3.37793 0.097699 -10.5185 17.5253 -9.8778e-07 -48.7438 4.7596 8.06806 -180 -75.3493 180 -12.1323 0.674999 -0.0717046 -3.3491 2.68156 -22.4482 11.8594 -11.954 -77.018 -0 -0 57.38 1.56907e-07 -1.137 1.70229 -0.0338 1.07261e-08 -2.65099 0.768436 10.6721 -13.7881 -0 -0 58.3464 -2.49631e-07 -2.65687 -0.742701 0.0344996 -1.45944e-07 -91.0753 
55.682 71.877 11.686 125.206 -85.6658 -100.271 0 -0 0 5.04141 -12.5872 18.0181 15.1803 -14.4297 3.3972e-05 54.8588 -23.5425 3.14173 -1.57383e-06 81.658 -1.35983e-06 2.5811 3.16337 0.0712988 -10.5465 17.6666 -5.66193e-06 -49.6733 5.84619 8.32911 -180 -76.5477 180 -12.0722 0.7285 -0.0769962 -3.59323 2.80918 -22.5045 11.422 -10.9124 -76.5124 -0 -0 58.904 -2.431e-08 -0.885104 0.158095 -0.00239999 -9.20729e-09 -0.273895 0.401166 11.8309 -12.329 -0 -0 57.4773 -4.17902e-08 -2.12422 0.508896 -0.0188998 -3.33335e-07 -91.1315 
54.511 71.785 11.559 131.253 -85.5351 -106.137 0 -0 0 5.87306 -12.506 17.8875 15.3228 -14.2527 -3.21726e-05 54.9396 -22.9004 2.29131 -1.72672e-06 82.444 -1.51281e-06 1.83102 2.94586 0.0471 -10.714 17.8041 -3.70105e-05 -50.5061 6.85339 8.6418 -180 -77.865 180 -11.9171 0.804694 -0.0840018 -3.93133 2.92673 -22.4848 11.5068 -10.6459 -76.4429 -0 -0 60.2553 -1.57163e-07 -0.7736 -1.35097 -179.982 1.12432e-08 -1.17343 0.351968 12.1158 -11.7178 -0 -0 57.0671 1.2751e-06 -1.50586 1.86248 -0.0489994 -6.10544e-07 -91.0432 
53.372 71.714 11.441 136.021 -85.3628 -110.683 0 -0 0 6.68546 -12.4563 17.7388 15.4849 -14.1097 8.25753e-05 55.0318 -22.2905 1.45589 -2.76207e-06 83.3731 -2.45972e-06 1.07901 2.73395 0.0257006 -10.8818 17.9231 -9.57118e-06 -51.263 7.75762 9.00329 -180 -79.2943 180 -11.665 0.907296 -0.0926966 -4.24031 3.02345 -22.4346 11.5612 -10.433 -76.3783 -0 -0 61.4883 -3.49693e-07 -0.730295 -2.71189 -179.965 6.91331e-09 -1.55344 0.232928 12.3685 -11.2457 -0 -0 56.7131 4.32516e-08 -0.778691 3.37063 -0.0458002 -8.42936e-08 -90.7506 
52.268 71.667 11.335 139.535 -85.1803 -113.935 0 -0 0 7.48163 -12.4403 17.5768 15.665 -14.002 -4.3013e-05 55.1339 -21.7151 0.645108 -3.262e-06 84.4399 -2.9598e-06 0.340899 2.53794 0.0076001 -11.056 18.0178 -6.21738e-05 -51.9264 8.55974 9.41855 -180 -80.8008 180 -11.3279 1.039 -0.102999 -4.51443 3.09509 -22.3662 11.5986 -10.294 -76.3333 -0 -0 62.6132 -1.6287e-07 -0.716596 -3.90679 -179.951 -2.84726e-09 -1.09801 0.0496515 12.5786 -10.9227 -0 -0 56.4274 -2.67897e-08 0.0636996 5.03478 0.00559987 -1.94554e-08 -90.1598 
51.198 71.644 11.237 141.917 -85.0142 -116.018 0 -0 0 8.26595 -12.4564 17.4108 15.8556 -13.9284 6.03832e-05 55.2436 -21.176 -0.130107 -3.55933e-06 85.6353 -3.29775e-06 -0.367297 2.36773 -0.00760007 -11.2412 18.0847 -8.71063e-05 -52.4928 9.26335 9.88647 -180 -82.3707 180 -10.9202 1.2044 -0.115099 -4.74737 3.13996 -22.291 11.6308 -10.2412 -76.314 -0 -0 63.6397 -2.79966e-07 -0.698904 -4.92535 0.0600001 2.25837e-09 -0.0360998 -0.187271 12.7362 -10.7509 -0 -0 56.2145 1.00553e-06 1.0261 6.83198 0.122099 3.36716e-07 -89.1389 
50.163 71.647 11.148 143.34 -84.8806 -117.115 0 -0 0 9.04072 -12.4998 17.2517 16.0546 -13.8828 4.99292e-05 55.3574 -20.6702 -0.857707 2.62385e-06 86.9202 3.20728e-06 -1.0314 2.23172 -0.0201001 -11.4376 18.1206 2.33135e-05 -52.9609 9.87822 10.4057 -180 -83.9846 180 -10.4643 1.40843 -0.129003 -4.93198 3.15773 -22.213 11.6711 -10.2806 -76.3193 -0 -0 64.5721 1.00607e-07 -0.649199 -5.78131 0.0654004 2.90914e-08 -1.62244 -0.464769 12.8467 -10.7249 -0 -0 56.0851 2.88924e-06 2.10976 8.71088 0.319699 -2.95692e-06 -87.53 
49.163 71.677 11.064 144.009 -84.7787 -117.44 0 -0 0 9.80608 -12.5635 17.1107 16.2547 -13.8617 -9.39425e-05 55.4694 -20.1961 -1.52678 -1.0034e-05 88.3089 -9.74176e-06 -1.63867 2.13714 -0.0306008 -11.6424 18.124 0.000148458 -53.3417 10.415 10.9652 180 -85.5979 180 -9.98621 1.65533 -0.144603 -5.0602 3.14966 -22.1381 11.729 -10.4125 -76.34 -0 -0 65.4154 -3.58227e-07 -0.547498 -6.50431 0.0619996 1.79955e-08 -3.39837 -0.769219 12.9195 -10.8344 -0 -0 56.0455 -3.70559e-06 3.3106 10.592 0.609203 -3.07415e-06 -85.1605 
48.194 71.732 10.982 144.082 -84.7251 -117.156 0 -0 0 10.5577 -12.6382 17.0008 16.4503 -13.8559 -5.90312e-05 55.5748 -19.7481 -2.1253 -0 89.7389 -0 -2.17859 2.08851 -0.0397002 -11.851 18.0946 4.02677e-05 -53.6483 10.8886 11.5531 -180 -87.2034 180 -9.51453 1.9484 -0.162201 -5.12415 3.11781 -22.0638 11.8091 -10.6279 -76.3621 -0 -0 66.1743 -3.00247e-07 -0.382802 -7.13095 0.0475001 -2.26914e-08 -5.16417 -1.08718 12.9699 -11.0646 -0 -0 56.0971 5.3277e-06 4.6159 12.3721 0.991083 1.69997e-06 -81.8937 
47.254 71.812 10.9 143.706 -84.7062 -116.421 0 -0 0 11.2897 -12.7138 16.9299 16.6383 -13.8592 -4.6432e-05 55.665 -19.3245 -2.64594 -180 88.8257 -180 -2.64287 2.08765 -0.0482005 -12.0519 18.0337 2.92536e-05 -53.9002 11.3153 12.1558 -180 -88.8142 180 -9.07731 2.28858 -0.181695 -5.11615 3.06557 -21.984 11.9126 -10.9145 -76.3688 -0 -0 66.8476 1.64822e-07 -0.153302 -7.69886 0.0205008 1.59076e-08 -6.75207 -1.40826 13.0211 -11.3999 -0 -0 56.2454 -1.62455e-05 6.00236 13.9303 1.45009 -7.88401e-06 -77.6522 
46.341 71.914 10.814 143.038 -84.6897 -115.413 0 -0 0 11.9863 -12.7812 16.9091 16.8131 -13.8624 3.96441e-05 55.7395 -18.9188 -3.08077 180 87.399 180 -3.02873 2.13617 -0.0564995 -12.2333 17.9471 -6.70913e-06 -54.1135 11.7104 12.7573 0 -89.6979 0 -8.7 2.67248 -0.203299 -5.02779 2.99788 -21.8933 12.0336 -11.2556 -76.3427 -0 -0 67.4399 1.32594e-08 0.1355 -8.24741 -0.0193992 5.85563e-10 -7.99573 -1.72734 13.0927 -11.8231 -0 -0 56.4857 -1.93011e-05 7.43439 15.1492 1.95311 4.42988e-05 -72.4861 
45.451 72.037 10.724 142.195 -84.7057 -114.241 0 -0 0 12.6456 -12.826 16.9417 16.9723 -13.8628 -9.39338e-05 55.7922 -18.5329 -3.435 180 86.0163 180 -3.32791 2.22423 -0.064601 -12.3866 17.833 7.2237e-05 -54.309 12.0909 13.3406 9.60939e-06 -88.1624 -9.30745e-06 -8.40246 3.0985 -0.227699 -4.85897 2.91353 -21.7792 12.1699 -11.6309 -76.2706 -0 -0 67.9461 2.95367e-07 0.469797 -8.77979 -0.0717008 -4.24321e-08 -9.03807 -2.03581 13.2082 -12.3229 -0 -0 56.8195 -3.63246e-06 8.86879 15.9274 2.45186 1.84492e-05 -66.5031 
44.582 72.179 10.627 141.281 -84.7193 -113.021 0 -0 0 13.2511 -12.8407 17.0304 17.1144 -13.8526 -7.92596e-05 55.8206 -18.1608 -3.70696 -180 84.7116 -180 -3.54324 2.34794 -0.0726023 -12.5035 17.6972 -0.000111985 -54.5015 12.4684 13.8942 -3.65171e-06 -86.7409 3.86526e-06 -8.19826 3.55662 -0.255005 -4.6073 2.81661 -21.6334 12.3095 -12.023 -76.1381 -0 -0 68.3694 -1.21974e-06 0.834301 -9.31098 -0.134998 -6.17649e-08 -9.86686 -2.33682 13.3835 -12.8863 -0 -0 57.239 5.68816e-05 10.2562 16.1993 2.88973 5.68179e-05 -60 
